<?xml version="1.0" encoding="utf-8"?>
<!-- Generator: Adobe Illustrator 16.0.0, SVG Export Plug-In . SVG Version: 6.00 Build 0)  -->
<!DOCTYPE svg PUBLIC "-//W3C//DTD SVG 1.1//EN" "http://www.w3.org/Graphics/SVG/1.1/DTD/svg11.dtd">
<svg version="1.1" id="Capa_1" xmlns="http://www.w3.org/2000/svg" xmlns:xlink="http://www.w3.org/1999/xlink" x="0px" y="0px"
	 width="200px" height="200px" viewBox="0 0 200 200" enable-background="new 0 0 200 200" xml:space="preserve">
<circle fill="#4AC0F4" cx="100" cy="100" r="100"/>
<g id="_x31_2_cloud">
	<path fill="#D8ECFE" d="M29.873,110.278c0.375-4.209-4.459-7.453-9.534-6.466c-1.029-3.716-5.164-6.494-10.109-6.494
		c-5.861,0-10.587,3.903-10.346,8.645c-0.003,0-0.006-0.001-0.01-0.001c-5.122,0-9.274,3.328-9.274,7.435
		c0,4.008,3.959,7.275,8.915,7.427v0.007h29.792c3.642,0,6.594-2.367,6.594-5.287C35.9,112.777,33.25,110.509,29.873,110.278z"/>
	<g>
		<g>
			<path fill="#C4E2FF" d="M29.873,110.278c0.375-4.209-4.459-7.453-9.534-6.466c-1.029-3.716-5.164-6.494-10.109-6.494
				c-1.637,0-3.185,0.305-4.561,0.846c0.345-0.027,0.695-0.042,1.049-0.042c4.945,0,9.08,2.778,10.109,6.495
				c5.075-0.988,9.909,2.256,9.534,6.465c3.376,0.23,6.028,2.5,6.028,5.266c0,1.891-1.239,3.547-3.1,4.482h0.016
				c3.642,0,6.594-2.367,6.594-5.287C35.9,112.777,33.25,110.509,29.873,110.278L29.873,110.278z"/>
		</g>
	</g>
</g>
<g id="_x31_2_cloud_2_">
	<path fill="#D8ECFE" d="M136.651,20.439c0.375-4.209-4.459-7.453-9.534-6.466c-1.028-3.716-5.163-6.494-10.108-6.494
		c-5.861,0-10.588,3.903-10.347,8.645c-0.003,0-0.007-0.001-0.01-0.001c-5.122,0-9.274,3.328-9.274,7.435
		c0,4.008,3.96,7.275,8.915,7.427v0.007h29.792c3.642,0,6.594-2.367,6.594-5.287C142.679,22.938,140.028,20.67,136.651,20.439z"/>
	<g>
		<g>
			<path fill="#C4E2FF" d="M136.651,20.439c0.375-4.209-4.459-7.453-9.534-6.466c-1.028-3.716-5.163-6.494-10.108-6.494
				c-1.637,0-3.186,0.305-4.561,0.846c0.345-0.027,0.694-0.042,1.049-0.042c4.945,0,9.08,2.778,10.109,6.495
				c5.074-0.988,9.908,2.256,9.533,6.465c3.377,0.23,6.028,2.5,6.028,5.266c0,1.891-1.239,3.547-3.1,4.482h0.017
				c3.642,0,6.594-2.367,6.594-5.287C142.679,22.938,140.028,20.67,136.651,20.439L136.651,20.439z"/>
		</g>
	</g>
</g>
<g id="_x31_2_cloud_1_">
	<path fill="#D8ECFE" d="M157.833,151.386c0.375-4.209-4.459-7.453-9.534-6.466c-1.028-3.716-5.163-6.494-10.108-6.494
		c-5.861,0-10.588,3.903-10.347,8.645c-0.003,0-0.007-0.001-0.01-0.001c-5.122,0-9.274,3.328-9.274,7.435
		c0,4.008,3.96,7.275,8.915,7.427v0.007h29.792c3.642,0,6.594-2.367,6.594-5.287C163.86,153.885,161.21,151.616,157.833,151.386z"/>
	<g>
		<g>
			<path fill="#C4E2FF" d="M157.833,151.386c0.375-4.209-4.459-7.453-9.534-6.466c-1.028-3.716-5.163-6.494-10.108-6.494
				c-1.637,0-3.186,0.305-4.561,0.846c0.345-0.027,0.694-0.042,1.049-0.042c4.945,0,9.08,2.778,10.109,6.495
				c5.074-0.988,9.908,2.256,9.533,6.465c3.377,0.23,6.028,2.5,6.028,5.266c0,1.891-1.239,3.547-3.1,4.482h0.017
				c3.642,0,6.594-2.367,6.594-5.287C163.86,153.885,161.21,151.616,157.833,151.386L157.833,151.386z"/>
		</g>
	</g>
</g>
<g>
	<ellipse fill="#FCD57E" cx="99.999" cy="99.999" rx="49.076" ry="50.183"/>
	<path fill="#FCD57E" d="M100,30.991c-1.447,0-2.622-1.199-2.622-2.681V13.974c0-1.481,1.175-2.681,2.622-2.681
		s2.622,1.199,2.622,2.681v14.337C102.622,29.792,101.447,30.991,100,30.991z"/>
	<path fill="#FCD57E" d="M64.948,40.597c-0.905,0-1.787-0.48-2.272-1.341l-7.01-12.416c-0.725-1.282-0.295-2.922,0.959-3.662
		c1.255-0.74,2.857-0.302,3.582,0.981l7.01,12.416c0.724,1.282,0.295,2.922-0.959,3.662C65.844,40.48,65.394,40.597,64.948,40.597z"
		/>
	<path fill="#FCD57E" d="M39.283,66.837c-0.445,0-0.896-0.116-1.309-0.359l-12.143-7.169c-1.254-0.74-1.684-2.38-0.96-3.662
		s2.327-1.722,3.582-0.981l12.142,7.168c1.254,0.74,1.684,2.38,0.961,3.662C41.07,66.356,40.189,66.837,39.283,66.837z"/>
	<path fill="#FCD57E" d="M29.893,102.681H15.872c-1.448,0-2.622-1.199-2.622-2.681s1.174-2.682,2.622-2.682h14.021
		c1.448,0,2.622,1.2,2.622,2.682S31.34,102.681,29.893,102.681z"/>
	<path fill="#FCD57E" d="M27.145,145.694c-0.905,0-1.787-0.48-2.272-1.341c-0.724-1.282-0.294-2.922,0.96-3.663l12.143-7.167
		c1.254-0.74,2.857-0.302,3.582,0.98c0.723,1.282,0.294,2.922-0.961,3.662l-12.142,7.169
		C28.041,145.578,27.59,145.694,27.145,145.694z"/>
	<path fill="#FCD57E" d="M57.934,177.182c-0.444,0-0.896-0.115-1.309-0.359c-1.254-0.74-1.684-2.38-0.959-3.662l7.01-12.417
		c0.725-1.282,2.327-1.72,3.582-0.98c1.254,0.74,1.683,2.38,0.959,3.662l-7.01,12.416C59.721,176.701,58.84,177.182,57.934,177.182z
		"/>
	<path fill="#FCD57E" d="M100,188.707c-1.447,0-2.622-1.2-2.622-2.681v-14.338c0-1.48,1.175-2.681,2.622-2.681
		s2.622,1.2,2.622,2.681v14.338C102.622,187.507,101.447,188.707,100,188.707z"/>
	<path fill="#FCD57E" d="M142.066,177.182c-0.906,0-1.787-0.48-2.273-1.341l-7.009-12.415c-0.725-1.282-0.295-2.922,0.959-3.663
		c1.253-0.739,2.857-0.302,3.581,0.981l7.011,12.417c0.724,1.281,0.294,2.921-0.96,3.661
		C142.962,177.066,142.511,177.182,142.066,177.182z"/>
	<path fill="#FCD57E" d="M172.854,145.694c-0.444,0-0.896-0.116-1.308-0.36l-12.143-7.168c-1.254-0.74-1.684-2.38-0.96-3.662
		s2.327-1.722,3.582-0.981l12.142,7.168c1.254,0.74,1.684,2.38,0.96,3.663C174.643,145.213,173.761,145.694,172.854,145.694z"/>
	<path fill="#FCD57E" d="M184.128,102.681h-14.021c-1.448,0-2.622-1.199-2.622-2.681s1.174-2.682,2.622-2.682h14.021
		c1.448,0,2.622,1.2,2.622,2.682S185.576,102.681,184.128,102.681z"/>
	<path fill="#FCD57E" d="M160.718,66.837c-0.907,0-1.788-0.48-2.273-1.341c-0.724-1.282-0.295-2.922,0.96-3.662l12.143-7.169
		c1.254-0.739,2.856-0.301,3.581,0.981c0.724,1.282,0.295,2.922-0.96,3.662l-12.142,7.169
		C161.613,66.721,161.162,66.837,160.718,66.837z"/>
	<path fill="#FCD57E" d="M135.052,40.597c-0.445,0-0.896-0.116-1.309-0.359c-1.254-0.74-1.684-2.38-0.959-3.662l7.009-12.417
		c0.725-1.282,2.328-1.721,3.582-0.98c1.254,0.739,1.684,2.379,0.96,3.662l-7.011,12.416
		C136.838,40.116,135.957,40.597,135.052,40.597z"/>
</g>
</svg>
